<?xml version="1.0" standalone="no"?><!DOCTYPE svg PUBLIC "-//W3C//DTD SVG 1.1//EN" "http://www.w3.org/Graphics/SVG/1.1/DTD/svg11.dtd"><svg t="1481101162306" class="icon" style="" viewBox="0 0 1025 1024" version="1.1" xmlns="http://www.w3.org/2000/svg" p-id="2362" xmlns:xlink="http://www.w3.org/1999/xlink" width="200.1953125" height="200"><defs><style type="text/css"></style></defs><path d="M895.045004 727.540438a36.558536 36.558536 0 1 0 64.169179 34.615565c110.595964-197.722881 79.303902-452.456626-91.268513-617.251259-203.142748-196.137826-526.800838-190.462305-722.989795 12.629312-196.137826 203.142748-190.513435 526.851969 12.629312 722.989795 170.623546 164.794633 426.328777 187.138801 620.063454 69.691308a38.910554 38.910554 0 0 0 5.164213-3.170111 7.669623 7.669623 0 0 1 0.869224-0.511308l-0.051131-0.102262a36.507405 36.507405 0 0 0-42.745365-59.209489l-0.102262-0.102262a438.446782 438.446782 0 0 1-532.476359-59.158359 438.242258 438.242258 0 0 1-10.788603-619.705538 438.242258 438.242258 0 0 1 697.424384 519.182346l0.102262 0.102262z m-343.138933 40.853525c0 20.196674-16.361862 36.507405-36.507405 36.507405h-5.726652a36.507405 36.507405 0 0 1-36.507406-36.507405V403.166516c0-20.145543 16.361862-36.507405 36.507406-36.507406h5.726652c20.145543 0 36.507405 16.361862 36.507405 36.507406v365.227447z m-38.757161-566.069308a45.659822 45.659822 0 1 0 0 91.319644 45.659822 45.659822 0 0 0 0-91.319644z" fill="#f5a22b" p-id="2363"></path></svg>