<?xml version="1.0" standalone="no"?><!DOCTYPE svg PUBLIC "-//W3C//DTD SVG 1.1//EN" "http://www.w3.org/Graphics/SVG/1.1/DTD/svg11.dtd"><svg t="1481624415898" class="icon" style="" viewBox="0 0 1024 1024" version="1.1" xmlns="http://www.w3.org/2000/svg" p-id="2299" xmlns:xlink="http://www.w3.org/1999/xlink" width="16" height="16"><defs><style type="text/css"></style></defs><path d="M545.822 899.904l401.468-401.339c16.904-16.975 16.904-44.42 0-61.398-16.975-16.976-44.559-16.976-61.534 0l-373.456 373.472-373.599-373.472c-16.976-16.976-44.421-16.976-61.397 0-16.975 16.976-16.975 44.423 0 61.398l401.326 401.339c9.267 9.338 21.573 13.086 33.669 12.31 12.021 0.776 24.26-2.972 33.525-12.31zM512.298 597.731c12.022 0.85 24.261-2.968 33.524-12.165l401.467-401.342c16.904-16.975 16.904-44.418 0-61.537-16.975-16.975-44.559-16.833-61.534 0l-373.456 373.614-373.598-373.614c-16.976-16.833-44.421-16.976-61.397 0-16.975 17.119-16.976 44.561 0 61.537l401.326 401.342c9.266 9.197 21.572 13.015 33.67 12.165z" fill="#499DF1" p-id="2300"></path></svg>