<?xml version="1.0" standalone="no"?><!DOCTYPE svg PUBLIC "-//W3C//DTD SVG 1.1//EN" "http://www.w3.org/Graphics/SVG/1.1/DTD/svg11.dtd"><svg t="1482231425337" class="icon" style="" viewBox="0 0 1060 1024" version="1.1" xmlns="http://www.w3.org/2000/svg" p-id="6595" xmlns:xlink="http://www.w3.org/1999/xlink" width="20.703125" height="20"><defs><style type="text/css"></style></defs><path d="M336.55 1022.14c-4.59 0-9.287-0.884-13.771-2.79C126.7 936.053 0.007 744.21 0.007 530.513 0.007 238.003 237.116 0.011 528.567 0.011c291.452 0 528.561 237.991 528.561 530.502 0 210.98-120.69 402.68-307.482 488.413-17.655 8.05-38.7 0.353-46.787-17.373-8.156-17.726-0.388-38.7 17.338-46.821 161.792-74.258 266.31-240.782 266.31-424.219 0-253.563-205.435-459.882-457.94-459.882-252.504 0-457.94 206.319-457.94 459.882 0 185.309 109.816 351.656 279.73 423.795 17.972 7.627 26.34 28.39 18.714 46.327-5.72 13.418-18.785 21.504-32.521 21.504" fill="#FF6868" p-id="6596"></path><path d="M743.76 778.519c-9.04 0-18.08-3.46-24.965-10.346L285.431 334.844c-13.806-13.806-13.806-36.157 0-49.928 13.807-13.807 36.123-13.807 49.929 0l433.364 433.328c13.806 13.807 13.806 36.123 0 49.929a35.214 35.214 0 0 1-24.965 10.346" fill="#FF6868" p-id="6597"></path><path d="M309.276 779.656c-9.04 0-18.079-3.46-24.964-10.346-13.807-13.806-13.807-36.122 0-49.929l434.494-434.494c13.77-13.77 36.122-13.77 49.928 0 13.771 13.807 13.771 36.158 0 49.93L334.241 769.31a35.214 35.214 0 0 1-24.965 10.346" fill="#FF6868" p-id="6598"></path></svg>