<?xml version="1.0" standalone="no"?><!DOCTYPE svg PUBLIC "-//W3C//DTD SVG 1.1//EN" "http://www.w3.org/Graphics/SVG/1.1/DTD/svg11.dtd"><svg t="1482231434764" class="icon" style="" viewBox="0 0 1024 1024" version="1.1" xmlns="http://www.w3.org/2000/svg" p-id="6716" xmlns:xlink="http://www.w3.org/1999/xlink" width="20" height="20"><defs><style type="text/css"></style></defs><path d="M151.025313 149.335872a508.001212 508.001212 0 0 1 288.531173-143.958421 508.461961 508.461961 0 0 1 379.503475 97.013232 508.666738 508.666738 0 0 1 199.862615 336.960997c40.136345 279.418585-154.606839 539.28094-433.87184 579.468479a512.864672 512.864672 0 0 1-338.138467-69.00994 36.603937 36.603937 0 0 1 37.93499-62.508262 438.888883 438.888883 0 0 0 289.811031 59.129437c239.333434-34.351387 406.226909-257.149056 371.875521-496.687268a435.663641 435.663641 0 0 0-171.296186-288.787144 435.40767 435.40767 0 0 0-325.288693-83.088377c-239.589406 34.351387-406.431686 257.149056-372.029104 496.636073a432.591982 432.591982 0 0 0 64.812005 174.111874 36.501548 36.501548 0 1 1-61.484375 39.573207 508.103601 508.103601 0 0 1-75.716395-203.292635A508.154795 508.154795 0 0 1 102.595489 205.342455c14.948741-20.016978 31.126145-38.702904 48.429824-56.006583z m654.519348 134.180306c-13.412911-12.593802-37.730212-15.204712-53.805227-0.204778l-318.684626 336.602638-161.159712-155.477142c-12.133053-11.97947-36.501548-14.692769-51.296706 1.279857-13.720077 14.846352-13.771271 39.112459-1.638218 51.040735l193.309743 183.634017 0.307166 0.204777 0.204777 0.307166c1.945384 1.842995 4.300323 2.918076 6.552872 4.146739 1.126275 0.665526 2.047773 1.587024 3.225242 2.047773a30.818979 30.818979 0 0 0 23.139832-0.255971c1.279858-0.511943 2.25255-1.587024 3.430019-2.303745 2.303744-1.382247 4.709877-2.508522 6.706456-4.5051l0.204777-0.35836 0.255972-0.204777 352.319292-361.995019a38.856487 38.856487 0 0 0-3.071659-53.95881z" fill="#5CBE5C" p-id="6717"></path></svg>