<?xml version="1.0" standalone="no"?><!DOCTYPE svg PUBLIC "-//W3C//DTD SVG 1.1//EN" "http://www.w3.org/Graphics/SVG/1.1/DTD/svg11.dtd"><svg class="icon" style="" viewBox="0 0 1024 1024" version="1.1" xmlns="http://www.w3.org/2000/svg" p-id="5688" xmlns:xlink="http://www.w3.org/1999/xlink" width="20" height="20"><defs><style type="text/css"><![CDATA[

]]></style></defs><path d="M161.198377 390.841507c-0.326493-0.326493-0.445217-0.77171-0.742029-1.127884-0.356174-0.326493-0.801391-0.415536-1.127884-0.77171L161.198377 390.841507z" fill="#499df1" p-id="5689"></path><path d="M863.098435 347.299246L537.407072 21.607884c-7.004754-7.004754-16.858899-9.705739-26.089739-8.043594-9.349565-1.840232-19.263072 0.831072-26.416232 8.043594L160.693797 348.753623c-10.982029 11.071072-10.982029 29.206261-0.26713 40.96 11.842783 10.803942 29.651478 10.74458 40.752232-0.474899l278.706087-281.199304 0 606.920348c0 16.413681 13.297159 29.710841 29.681159 29.710841 16.502725 0 29.681159-13.297159 29.681159-29.710841L539.247304 107.386435l281.881971 281.881971c11.338203 11.338203 30.185739 11.397565 41.791072-0.178087C874.585043 377.395942 874.585043 358.785855 863.098435 347.299246z" fill="#499df1" p-id="5690"></path><path d="M512 862.593855m-29.681159 0a1 1 0 1 0 59.362319 0 1 1 0 1 0-59.362319 0Z" fill="#499df1" p-id="5691"></path><path d="M512 981.318493m-29.681159 0a1 1 0 1 0 59.362319 0 1 1 0 1 0-59.362319 0Z" fill="#499df1" p-id="5692"></path></svg>