<?xml version="1.0" standalone="no"?><!DOCTYPE svg PUBLIC "-//W3C//DTD SVG 1.1//EN" "http://www.w3.org/Graphics/SVG/1.1/DTD/svg11.dtd"><svg class="icon" style="" viewBox="0 0 1024 1024" version="1.1" xmlns="http://www.w3.org/2000/svg" p-id="1793" xmlns:xlink="http://www.w3.org/1999/xlink" width="20" height="20"><defs><style type="text/css"><![CDATA[

]]></style></defs><path d="M862.802 633.158c0.326 0.326 0.445 0.772 0.742 1.128 0.356 0.326 0.801 0.416 1.129 0.772l-1.87-1.9z" fill="#499DF1" p-id="1794"></path><path d="M160.902 676.701l325.691 325.691c7.005 7.005 16.859 9.706 26.089 8.044 9.35 1.841 19.263-0.832 26.416-8.044l324.207-327.146c10.982-11.071 10.982-29.206 0.267-40.96-11.843-10.804-29.651-10.744-40.752 0.475l-278.706 281.199v-606.92c0-16.413-13.297-29.711-29.681-29.711-16.502 0-29.681 13.297-29.681 29.711v607.573l-281.882-281.882c-11.338-11.338-30.186-11.398-41.791 0.178-11.664 11.694-11.665 30.304-0.178 41.791z" fill="#499DF1" p-id="1795"></path><path d="M541.681 161.406c0-16.392-13.289-29.681-29.681-29.681s-29.681 13.289-29.681 29.681c0 16.392 13.289 29.681 29.681 29.681 16.392 0 29.681-13.289 29.681-29.681z" fill="#499DF1" p-id="1796"></path><path d="M541.682 42.682c0-16.392-13.289-29.681-29.681-29.681s-29.681 13.289-29.681 29.681c0 16.392 13.289 29.681 29.681 29.681 16.392 0 29.681-13.289 29.681-29.681z" fill="#499DF1" p-id="1797"></path></svg>