<?xml version="1.0" standalone="no"?><!DOCTYPE svg PUBLIC "-//W3C//DTD SVG 1.1//EN" "http://www.w3.org/Graphics/SVG/1.1/DTD/svg11.dtd"><svg t="1481096139246" class="icon" style="" viewBox="0 0 1024 1024" version="1.1" xmlns="http://www.w3.org/2000/svg" p-id="2518" xmlns:xlink="http://www.w3.org/1999/xlink" width="16" height="16"><defs><style type="text/css"></style></defs><path d="M899.903689 478.177684L498.564974 76.711126c-16.975299-16.903995-44.421496-16.903995-61.397818 0-16.976322 16.974603-16.976322 44.558845 0 61.534472l373.471922 373.455597L437.167157 885.300055c-16.976322 16.975627-16.976322 44.420699 0 61.396325 16.976322 16.974603 44.422519 16.974603 61.397818 0l401.338715-401.326365c9.338052-9.267061 13.085553-21.573341 12.309855-33.668821C912.989242 499.680417 909.241741 487.441675 899.903689 478.177684zM597.730478 511.701195c0.850402-12.021801-2.96771-24.260543-12.164539-33.523511L184.224153 76.711126c-16.975299-16.903995-44.418425-16.903995-61.536993 0-16.975299 16.974603-16.833053 44.558845 0 61.534472l373.614168 373.455597-373.614168 373.59886c-16.833053 16.975627-16.975299 44.420699 0 61.396325 17.118567 16.974603 44.560671 16.974603 61.536993 0l401.341785-401.326365C594.762768 536.103978 598.58088 523.797697 597.730478 511.701195z" fill="#499DF1" p-id="2519"></path></svg>