<?xml version="1.0" standalone="no"?><!DOCTYPE svg PUBLIC "-//W3C//DTD SVG 1.1//EN" "http://www.w3.org/Graphics/SVG/1.1/DTD/svg11.dtd"><svg t="1481269346633" class="icon" style="" viewBox="0 0 1024 1024" version="1.1" xmlns="http://www.w3.org/2000/svg" p-id="2255" xmlns:xlink="http://www.w3.org/1999/xlink" width="20" height="20"><defs><style type="text/css"></style></defs><path d="M161.198 390.842c-0.326-0.326-0.445-0.772-0.742-1.128-0.356-0.326-0.801-0.416-1.129-0.772l1.87 1.9z" fill="#999999" p-id="2256"></path><path d="M863.098 347.299l-325.691-325.691c-7.005-7.005-16.859-9.706-26.089-8.044-9.35-1.841-19.263 0.832-26.416 8.044l-324.207 327.146c-10.982 11.071-10.982 29.206-0.267 40.96 11.843 10.804 29.651 10.744 40.752-0.475l278.706-281.199v606.92c0 16.413 13.297 29.711 29.681 29.711 16.502 0 29.681-13.297 29.681-29.711v-607.573l281.882 281.882c11.338 11.338 30.186 11.398 41.791-0.178 11.664-11.694 11.665-30.304 0.178-41.791z" fill="#999999" p-id="2257"></path><path d="M482.319 862.594c0 16.392 13.289 29.681 29.681 29.681s29.681-13.289 29.681-29.681c0-16.392-13.289-29.681-29.681-29.681-16.392 0-29.681 13.289-29.681 29.681z" fill="#999999" p-id="2258"></path><path d="M482.318 981.318c0 16.392 13.289 29.681 29.681 29.681s29.681-13.289 29.681-29.681c0-16.392-13.289-29.681-29.681-29.681-16.392 0-29.681 13.289-29.681 29.681z" fill="#999999" p-id="2259"></path></svg>