<?xml version="1.0" standalone="no"?><!DOCTYPE svg PUBLIC "-//W3C//DTD SVG 1.1//EN" "http://www.w3.org/Graphics/SVG/1.1/DTD/svg11.dtd"><svg t="1480575223546" class="icon" style="" viewBox="0 0 1024 1024" version="1.1" xmlns="http://www.w3.org/2000/svg" p-id="2655" xmlns:xlink="http://www.w3.org/1999/xlink" width="200" height="200"><defs><style type="text/css"></style></defs><path d="M279.0528 469.8368c0 24.1792 18.1504 44.3136 43.2384 50.3296v172.0448h-29.2096c-8.0896 0-14.1056 6.0288-14.1056 13.12 0 7.0144 6.0288 13.12 14.1056 13.12H726.784c8.0896 0 14.1056-6.0288 14.1056-13.12 0-7.0144-6.0288-13.12-14.1056-13.12h-29.2096V520.1664c25.1648-6.0288 43.2384-26.1632 43.2384-50.3296v-13.12H279.0528v13.12z m289.792 52.3136c32.1792 0 58.3424-23.104 58.3424-52.3136 0 24.1792 18.1504 44.3136 43.2384 50.3296v172.0448H452.1728V522.1504c32.1792 0 58.3424-23.104 58.3424-52.3136-0.0128 29.2096 26.1504 52.3136 58.3296 52.3136z m-130.7904-1.984v172.0448h-86.5536V520.1664c25.1648-6.0288 43.2384-26.1632 43.2384-50.3296 0.0768 24.1792 18.1504 45.2992 43.3152 50.3296z m245.568-181.12h-346.24L279.04 443.6736h462.912l-58.3296-104.6272z m-282.7776 29.1328l-28.1344 52.3136c-0.9856 1.984-4.0448 4.0448-6.0288 4.0448-0.9856 0-1.984 0-3.0592-0.9856-4.0448-1.984-5.0304-6.0288-3.0592-9.0752l29.2096-52.3136c1.984-3.0592 6.0288-4.0448 10.0608-3.0592 1.9968 2.0608 2.9952 6.1056 1.0112 9.0752z m58.3424 0l-29.2096 52.3136c-0.9856 1.984-4.0448 4.0448-6.0288 4.0448-0.9856 0-1.984 0-3.0592-0.9856-4.0448-1.984-5.0304-6.0288-3.0592-9.0752l29.2096-52.3136c1.984-3.0592 6.0288-4.0448 10.0608-3.0592 2.0864 2.0608 4.0576 6.1056 2.0864 9.0752z m58.3296 49.344a6.8608 6.8608 0 0 1-7.0144 7.0144 6.8608 6.8608 0 0 1-7.0144-7.0144v-52.3136c0-4.0448 3.0592-7.0144 7.0144-7.0144 4.0448 0 7.0144 3.0592 7.0144 7.0144v52.3136z m83.5968 6.016c-0.9856 0.9856-1.984 0.9856-3.0592 0.9856-3.0592 0-5.0304-0.9856-6.0288-3.0592l-31.1936-52.3136c-1.984-3.0592-0.9856-7.0144 3.0592-9.0752a7.1936 7.1936 0 0 1 10.0608 3.0592l31.1936 52.3136c-0.0768 2.0736-1.0624 6.1184-4.032 8.0896z m57.344 0c-0.9856 0-1.984 0.9856-3.0592 0.9856-3.0592 0-5.0304-0.9856-6.0288-4.0448l-29.2096-52.3136c-1.984-3.0592 0-7.0144 3.0592-9.0752 3.0592-1.984 8.0896 0 10.0608 3.0592l29.2096 52.3136a7.5008 7.5008 0 0 1-4.032 9.0752zM401.8304 615.7184v-30.1952a12.2624 12.2624 0 0 1-7.0144-11.0592c0-7.0144 6.0288-13.12 14.1056-13.12 8.0896 0 14.1056 6.0288 14.1056 13.12a12.416 12.416 0 0 1-7.0144 11.0592v30.1952a12.2624 12.2624 0 0 1 7.0144 11.0592c0 7.0144-6.0288 13.12-14.1056 13.12-8.0896 0-14.1056-6.0288-14.1056-13.12 0-3.9552 2.9696-8 7.0144-11.0592z m-64.4352-302.8352c0-7.0144 6.0288-13.12 14.1056-13.12h318.016c8.0896 0 14.1056 6.0288 14.1056 13.12 0 7.0144-6.0288 13.12-14.1056 13.12H351.5008c-8-0.0768-14.1056-6.1056-14.1056-13.12z m195.2256 279.7312l-10.0608-9.0752 41.2544-37.2096 10.0608 9.0752-41.2544 37.2096z m0 37.2224l-10.0608-9.0752 81.5232-74.432 10.0608 9.0752-81.5232 74.432z m71.4624-46.2976l10.0608 9.0752-41.2544 37.2096-10.0608-9.0752 41.2544-37.2096z" fill="#6AC2EE" p-id="2656"></path><path d="M512 1024C229.6832 1024 0 794.3168 0 512S229.6832 0 512 0s512 229.6832 512 512-229.6832 512-512 512z m0-955.1616C267.6352 68.8384 68.8384 267.648 68.8384 512S267.6352 955.1616 512 955.1616 955.1616 756.352 955.1616 512 756.3648 68.8384 512 68.8384z" fill="#4D5E7D" p-id="2657"></path></svg>