<?xml version="1.0" standalone="no"?><!DOCTYPE svg PUBLIC "-//W3C//DTD SVG 1.1//EN" "http://www.w3.org/Graphics/SVG/1.1/DTD/svg11.dtd"><svg t="1480575295671" class="icon" style="" viewBox="0 0 1024 1024" version="1.1" xmlns="http://www.w3.org/2000/svg" p-id="2770" xmlns:xlink="http://www.w3.org/1999/xlink" width="200" height="200"><defs><style type="text/css"></style></defs><path d="M273.882341 404.757146c0 25.033358 19.210159 45.89449 45.740911 52.127232V635.048681H288.7283c-8.549224 0-14.922748 6.232743-14.922748 13.591731 0 7.2694 6.373524 13.591731 14.922748 13.591731h458.804114c8.549224 0 14.922748-6.232743 14.922748-13.591731 0-7.2694-6.373524-13.591731-14.922748-13.591731h-30.894952V456.884378c26.62034-6.232743 45.740911-27.093875 45.740911-52.127232v-13.591731H273.895139v13.591731H273.882341z m306.556249 54.174951c34.043319 0 61.713114-23.932709 61.713114-54.174951 0 25.033358 19.210159 45.89449 45.740911 52.127232V635.048681h-230.880254V458.932097c34.043319 0 61.713114-23.932709 61.713114-54.174951 0 30.242242 27.669795 54.174951 61.713115 54.174951z m-138.348977-2.047719V635.048681h-91.571409V456.884378c26.62034-6.232743 45.740911-27.093875 45.74091-52.127232 0.089588 25.033358 19.210159 46.90555 45.830499 52.127232z m259.77868-187.571009H335.595456L273.882341 377.663271h489.699067l-61.713115-108.349902zM402.722226 299.478822l-29.768707 54.174951c-1.049456 2.047718-4.274612 4.185025-6.373524 4.185024-1.049456 0-2.098911 0-3.225156-1.023859-4.274612-2.047718-5.324068-6.232743-3.225157-9.393908l30.894952-54.174951c2.098911-3.161165 6.373524-4.185025 10.648136-3.161166 2.098911 2.124508 3.135569 6.309532 1.049456 9.393909z m61.713114 0l-30.894952 54.174951c-1.049456 2.047718-4.274612 4.185025-6.373523 4.185024-1.049456 0-2.098911 0-3.225157-1.023859-4.274612-2.047718-5.324068-6.232743-3.225157-9.393908l30.894952-54.174951c2.098911-3.161165 6.373524-4.185025 10.648136-3.161166 2.175701 2.124508 4.274612 6.309532 2.175701 9.393909z m61.713115 51.090575a7.179813 7.179813 0 0 1-7.42298 7.2694 7.179813 7.179813 0 0 1-7.422979-7.2694v-54.174951c0-4.185025 3.225157-7.2694 7.422979-7.269401 4.274612 0 7.422979 3.161165 7.42298 7.269401v54.174951z m88.423041 6.245541c-1.049456 1.023859-2.098911 1.023859-3.225156 1.023859-3.225157 0-5.324068-1.023859-6.373524-3.161165l-32.993863-54.174951c-2.098911-3.161165-1.049456-7.2694 3.225156-9.393908a7.704541 7.704541 0 0 1 10.648136 3.161165l32.993864 54.174951c-0.076789 2.124508-1.126245 6.322331-4.274613 8.370049z m60.663659 0c-1.049456 0-2.098911 1.023859-3.225156 1.023859-3.225157 0-5.324068-1.023859-6.373524-4.185024L634.741523 299.478822c-2.098911-3.161165 0-7.2694 3.225157-9.393909 3.225157-2.047718 8.549224 0 10.648135 3.161166l30.894952 54.174951a7.730137 7.730137 0 0 1-4.274612 9.393908zM403.771681 555.840372v-31.278899a12.670258 12.670258 0 0 1-7.422979-11.454425c0-7.2694 6.373524-13.591731 14.922748-13.591731 8.549224 0 14.922748 6.232743 14.922748 13.591731 0 5.208884-3.225157 9.393908-7.422979 11.454425v31.278899a12.670258 12.670258 0 0 1 7.422979 11.454425c0 7.2694-6.373524 13.591731-14.922748 13.591731s-14.922748-6.232743-14.922748-13.591731c0-4.108235 3.135569-8.29326 7.422979-11.454425z m-68.176225-313.620877c0-7.2694 6.373524-13.591731 14.922748-13.591731h336.414543c8.549224 0 14.922748 6.232743 14.922748 13.591731 0 7.2694-6.373524 13.591731-14.922748 13.591731H350.518204c-8.472435-0.089588-14.922748-6.322331-14.922748-13.591731z m206.525202 289.688168l-10.648135-9.393909 43.641999-38.535501 10.648136 9.393908-43.642 38.535502z m0 38.535501l-10.648135-9.393908 86.247341-77.083801 10.648135 9.393908-86.247341 77.083801z m75.599206-47.92941l10.648135 9.393909-43.641999 38.535501-10.648136-9.393908 43.642-38.535502z" fill="#6AC2EE" p-id="2771"></path><path d="M47.980603 417.081851h-4.22342c-10.54575-2.060517-18.992589-14.462011-14.769169-24.790191a476.529677 476.529677 0 0 1 48.518129-121.852045c6.335129-10.32818 18.992589-14.462011 29.538338-8.267664 10.54575 6.194348 12.65746 18.583045 8.434041 28.911225a364.007549 364.007549 0 0 0-44.307508 111.523866c-4.210621 8.280461-12.644661 14.47481-23.190411 14.474809z" fill="#4D5E7D" p-id="2772"></path><path d="M47.980603 441.74406l-8.856383-0.447938c-12.721451-2.495657-24.111885-11.108873-30.485408-23.075227-5.592831-10.532952-6.655085-22.499306-2.994788-33.211434a498.427466 498.427466 0 0 1 50.719426-126.856157c9.176338-15.012336 24.047893-23.548762 40.173676-23.548762 7.934909 0 15.805827 2.150104 22.755271 6.245541 20.14443 11.825574 28.028146 36.922923 18.736624 59.665396l-1.702166 3.378736a340.842734 340.842734 0 0 0-41.312719 103.972903l-0.678307 3.173964-1.471798 2.892402c-8.753996 17.149642-25.954831 27.810576-44.883428 27.810576z" fill="#4D5E7D" p-id="2773"></path><path d="M507.898164 989.175988c-232.07049 0-434.602642-161.09145-483.120771-384.151979-2.11171-10.32818 4.223419-22.716876 16.880879-24.790191 10.54575-2.060517 23.20321 4.133832 25.314919 16.522528C109.168989 799.160515 294.820262 947.863269 507.910962 947.863269c12.65746 0 21.0915 8.267663 21.0915 20.65636-0.012798 12.388697-10.558548 20.65636-21.104298 20.656359z" fill="#4D5E7D" p-id="2774"></path><path d="M507.898164 1013.850995c-242.885003 0-456.103686-169.704666-506.951094-403.528514a46.534402 46.534402 0 0 1 7.115821-35.515117 44.256315 44.256315 0 0 1 29.717514-18.928597c2.086113-0.422342 5.029708-0.716701 7.986102-0.716702 22.537701 0 41.568684 15.729037 45.241779 37.396458 39.892115 191.205709 215.291997 330.629738 416.902676 330.629739 25.929235 0 45.484946 19.478922 45.484946 45.318568a45.484946 45.484946 0 0 1-45.497744 45.344165z" fill="#4D5E7D" p-id="2775"></path><path d="M978.361475 526.5452c-12.65746 0-21.0915-8.267663-21.0915-20.65636 0-243.704091-202.532152-441.974429-451.483521-441.974428-71.734137 0-139.244854 16.522528-202.532151 47.507068-10.54575 4.133832-23.20321 0-27.426629-8.267664-4.223419-10.32818-2.11171-22.716876 8.43404-26.850708C353.884141 43.258052 427.717189 24.675007 505.786454 24.675007c272.154579 0 493.679319 216.853383 493.679319 483.287148 0 10.315382-8.446839 18.583045-21.104298 18.583045z" fill="#4D5E7D" p-id="2776"></path><path d="M978.361475 551.207409c-25.929235 0-45.484946-19.478922-45.484946-45.318569 0-230.099561-191.589656-417.31222-427.090075-417.312219-66.294884 0-130.862006 15.153116-191.92241 45.037007l-1.804552 0.793491a47.993401 47.993401 0 0 1-17.546388 3.289148c-17.303221 0-33.16024-9.125145-40.365649-23.228806l-0.857482-1.881342c-5.068103-12.350302-5.196086-25.942033-0.396746-37.319668a40.314457 40.314457 0 0 1 21.60343-21.60343C349.788704 18.058317 427.589206 0 505.799253 0 791.455975 0 1023.859219 227.872668 1023.859219 507.949357c0 24.265463-19.990851 43.258052-45.497744 43.258052z" fill="#4D5E7D" p-id="2777"></path><path d="M831.655247 1011.521716c-92.544075 0-168.386447-74.25539-168.386446-164.841335s75.85517-164.841334 168.386446-164.841334 168.386447 74.25539 168.386447 164.841334-75.842372 164.841334-168.386447 164.841335z m0-301.475347c-75.85517 0-138.054617 60.894027-138.054617 135.149417s62.199448 135.149417 138.054617 135.149417 138.054617-60.894027 138.054618-135.149417c0-74.268188-62.199448-135.149417-138.054618-135.149417z" fill="#4D5E7D" p-id="2778"></path><path d="M831.655247 1023.859219c-99.570309 0-180.58317-79.477072-180.583169-177.178838 0-97.714564 81.012861-177.191636 180.583169-177.191636 99.583107 0 180.595968 79.477072 180.595968 177.191636C1012.251215 944.382147 931.238355 1023.859219 831.655247 1023.859219z m0-329.695467c-86.119359 0-156.189724 68.419392-156.189724 152.516629s70.070365 152.503831 156.189724 152.503831c86.132157 0 156.202522-68.406594 156.202523-152.503831s-70.070365-152.516629-156.202523-152.516629z m0 298.506156c-82.843009 0-150.25134-66.154104-150.25134-147.486921 0-81.320018 67.395533-147.474122 150.25134-147.474122 82.843009 0 150.25134 66.154104 150.251341 147.474122-0.012798 81.332817-67.408331 147.486921-150.251341 147.486921z m0-270.286036c-69.404857 0-125.857895 55.083626-125.857894 122.799115 0 67.728287 56.453038 122.811913 125.857894 122.811914s125.857895-55.083626 125.857895-122.811914c0-67.715489-56.453038-122.799115-125.857895-122.799115z" fill="#4D5E7D" p-id="2779"></path><path d="M913.576783 858.557148h-81.921536v-80.193773c0-2.969192-3.033183-5.938383-6.066365-5.938383h-12.132732c-3.033183 0-6.066366 2.969192-6.066366 5.938383v98.008924c0 2.969192 3.033183 5.938383 6.066366 5.938383h101.643624c3.033183 0 6.066366-2.969192 6.066366-5.938383v-11.876767c-1.522991-2.969192-3.033183-5.938383-7.589357-5.938384z" fill="#4D5E7D" p-id="2780"></path><path d="M915.099774 894.648186H813.45615c-9.726663 0-18.275887-8.536426-18.275887-18.275887v-98.008924c0-9.739461 8.536426-18.275887 18.275887-18.275887h12.132732c9.726663 0 18.263089 8.536426 18.263088 18.275887v67.85627h69.724813c12.004749 0 16.676107 9.176338 18.442264 12.631863l1.343816 2.649236v14.871555c-0.012798 9.739461-8.536426 18.275887-18.263089 18.275887z" fill="#4D5E7D" p-id="2781"></path></svg>