<?xml version="1.0" standalone="no"?><!DOCTYPE svg PUBLIC "-//W3C//DTD SVG 1.1//EN" "http://www.w3.org/Graphics/SVG/1.1/DTD/svg11.dtd"><svg t="1481683135238" class="icon" style="" viewBox="0 0 1062 1024" version="1.1" xmlns="http://www.w3.org/2000/svg" p-id="2299" xmlns:xlink="http://www.w3.org/1999/xlink" width="33.1875" height="32"><defs><style type="text/css"></style></defs><path d="M632.751026 782.990632H257.152011a18.171341 18.171341 0 0 1-18.171341-18.055416v-66.802139c0-9.911641 8.172756-17.997453 18.171341-17.997453h130.590213l0.028981-0.028981h155.775055l0.028981 0.028981h34.371947a177.771941 177.771941 0 0 1 3.535732-72.395551c-53.41273-53.6156-22.112812-93.233181 10.230436-144.443325a174.149266 174.149266 0 0 0 15.534033-23.156143l-0.028981-0.028981c12.462004-22.750403 19.562449-48.86265 19.562448-76.626836 0-88.885971-72.685365-160.933745-162.324852-160.933745-89.668469 0-162.353834 72.076755-162.353833 160.933745 0 37.472957 12.98367 71.815923 34.574817 99.145388 34.835649 54.108284 87.523845 98.76863-3.303881 168.179096h-128.822347c-15.331164 0-27.880112 17.823564-27.880112 33.009821v135.256219c0 15.215238 12.548949 27.677242 27.880112 27.677242h509.985792a180.496193 180.496193 0 0 1-81.785526-43.761922z m-266.860782-413.564656c0-57.962811 38.951009-100.710384 97.435485-100.710384 58.455495 0 100.565477 48.225059 100.565478 106.187869a103.463618 103.463618 0 0 1-12.751819 49.963943s-6.375909 10.346362-10.11451 15.128294c-63.034557 73.757677-49.123482 123.663657-15.418108 191.827923h-118.15719c36.139813-64.512609 57.586053-105.492316-22.924292-197.218464-14.084963-17.823564-18.635044-40.747856-18.635044-65.179181z" fill="#499df1" p-id="2300"></path><path d="M749.575071 564.007132c-49.848017 0-90.248097 18.34523-90.248096 41.008689v117.113859c0 4.637025 11.12886 35.907961 90.248096 35.907962 71.323239 0 90.248097-31.270937 90.248097-35.907962v-117.113859c0-22.663459-40.400079-41.008689-90.248097-41.008689z m61.382617 129.604845c0 12.693856-27.474372 23.011236-61.382617 23.011236s-61.382617-10.288399-61.382616-23.011236v-23.445957c12.404042 10.143492 35.241389 16.983104 61.382616 16.983104s48.978575-6.839612 61.382617-16.983104v23.445957z m-61.382617-47.935244c-33.908244 0-61.382617-11.795432-61.382616-26.373079 0-14.548666 27.474372-26.373079 61.382616-26.373079s61.382617 11.795432 61.382617 26.373079c0 14.577647-27.474372 26.373079-61.382617 26.373079z" fill="#499df1" p-id="2301"></path><path d="M749.575071 481.844848c-99.782979 0-180.670082 80.22053-180.670081 179.163048 0 98.942518 80.887103 179.163049 180.670081 179.163049s180.670082-80.22053 180.670082-179.163049c-0.028981-98.942518-80.887103-179.163049-180.670082-179.163048z m1.709903 309.31854c-75.351654 0-136.444457-58.281606-136.444457-130.155492 0-71.873886 61.092803-130.155492 136.444457-130.155492s136.444457 58.281606 136.444457 130.155492-61.092803 130.155492-136.444457 130.155492z" fill="#499df1" p-id="2302"></path></svg>