<?xml version="1.0" standalone="no"?><!DOCTYPE svg PUBLIC "-//W3C//DTD SVG 1.1//EN" "http://www.w3.org/Graphics/SVG/1.1/DTD/svg11.dtd"><svg t="1481009967011" class="icon" style="" viewBox="0 0 1024 1024" version="1.1" xmlns="http://www.w3.org/2000/svg" p-id="2364" xmlns:xlink="http://www.w3.org/1999/xlink" width="200" height="200"><defs><style type="text/css"></style></defs><path d="M882.688 186.652444a46.705778 46.705778 0 0 0 0-66.673777l-67.527111-66.730667a48.355556 48.355556 0 0 0-67.584 0l-101.319111 100.067556L781.368889 286.72l101.319111-100.067556z m-135.111111 133.461334L612.408889 186.652444l-405.390222 400.270223L342.186667 720.327111l405.390222-400.213333z m-574.577778 300.145778l-44.999111 177.891555 180.110222-44.430222-135.111111-133.461333z m803.043556 275.342222H48.014222a47.786667 47.786667 0 0 0-48.014222 47.445333 47.786667 47.786667 0 0 0 48.014222 47.502222h928.028445a47.786667 47.786667 0 0 0 48.014222-47.502222 47.786667 47.786667 0 0 0-48.014222-47.445333z" fill="#cccccc" p-id="2365"></path></svg>