<?xml version="1.0" standalone="no"?><!DOCTYPE svg PUBLIC "-//W3C//DTD SVG 1.1//EN" "http://www.w3.org/Graphics/SVG/1.1/DTD/svg11.dtd"><svg t="1481009918424" class="icon" style="" viewBox="0 0 1024 1024" version="1.1" xmlns="http://www.w3.org/2000/svg" p-id="2149" xmlns:xlink="http://www.w3.org/1999/xlink" width="200" height="200"><defs><style type="text/css"></style></defs><path d="M319.203556 565.134222a7.168 7.168 0 0 0-1.592889 2.787556l-51.598223 187.790222a32.199111 32.199111 0 0 0 8.192 31.004444 32.369778 32.369778 0 0 0 31.118223 8.135112l187.562666-50.801778c0.284444 0 0.398222 0.284444 0.682667 0.284444a8.248889 8.248889 0 0 0 5.916444-2.389333l501.475556-498.460445c14.904889-14.791111 23.096889-34.986667 23.096889-57.002666 0-24.917333-10.581333-49.777778-29.184-68.209778l-47.388445-47.217778a98.417778 98.417778 0 0 0-68.664888-29.070222c-22.072889 0-42.382222 8.078222-57.400889 22.869333l-501.475556 498.574223c-0.512 0.455111-0.341333 1.194667-0.739555 1.706666M951.864889 194.56l-49.891556 49.493333-80.782222-81.578666 49.095111-48.810667c7.793778-7.793778 22.812444-6.599111 31.687111 2.275556l47.388445 47.217777c4.892444 4.892444 7.793778 11.377778 7.793778 17.92a18.261333 18.261333 0 0 1-5.290667 13.482667m-543.459556 378.368l361.870223-359.765333 80.782222 81.578666-361.244445 359.139556-81.408-80.952889z m-65.991111 145.863111l26.225778-95.402667 69.802667 69.404445-96.028445 25.998222z m641.137778-326.769778a34.588444 34.588444 0 0 0-34.588444 34.474667v464.782222a44.373333 44.373333 0 0 1-44.487112 44.202667H113.777778a44.373333 44.373333 0 0 1-44.487111-44.202667V132.721778A44.373333 44.373333 0 0 1 113.777778 88.519111h509.269333a34.474667 34.474667 0 0 0 34.588445-34.417778 34.588444 34.588444 0 0 0-34.588445-34.417777H108.430222a108.145778 108.145778 0 0 0-108.373333 107.804444V896.568889c0 59.505778 48.583111 107.804444 108.373333 107.804444h801.336889a108.145778 108.145778 0 0 0 108.373333-107.804444V426.325333a34.588444 34.588444 0 0 0-34.588444-34.304" fill="#499df1" p-id="2150"></path></svg>